<svg width="20" height="20" viewBox="0 0 20 20" fill="none" xmlns="http://www.w3.org/2000/svg">
<path d="M7.50016 11.6667C7.73627 11.6667 7.93433 11.5867 8.09433 11.4267C8.25377 11.2672 8.3335 11.0694 8.3335 10.8333V10C8.3335 9.76389 8.4135 9.56583 8.5735 9.40583C8.73294 9.24639 8.93072 9.16667 9.16683 9.16667H10.8335V9.83333C10.8335 10.0278 10.9168 10.1597 11.0835 10.2292C11.2502 10.2986 11.4029 10.2639 11.5418 10.125L13.0418 8.625C13.0696 8.59722 13.1113 8.5 13.1668 8.33333C13.1668 8.30556 13.1252 8.20833 13.0418 8.04167L11.5418 6.54167C11.4029 6.40278 11.2502 6.36806 11.0835 6.4375C10.9168 6.50694 10.8335 6.63889 10.8335 6.83333V7.5H9.16683C8.47238 7.5 7.88211 7.74306 7.396 8.22917C6.90988 8.71528 6.66683 9.30556 6.66683 10V10.8333C6.66683 11.0694 6.74683 11.2672 6.90683 11.4267C7.06627 11.5867 7.26405 11.6667 7.50016 11.6667ZM3.3335 15C2.87516 15 2.48294 14.8369 2.15683 14.5108C1.83016 14.1842 1.66683 13.7917 1.66683 13.3333V4.16667C1.66683 3.70833 1.83016 3.31583 2.15683 2.98917C2.48294 2.66306 2.87516 2.5 3.3335 2.5H16.6668C17.1252 2.5 17.5177 2.66306 17.8443 2.98917C18.1704 3.31583 18.3335 3.70833 18.3335 4.16667V13.3333C18.3335 13.7917 18.1704 14.1842 17.8443 14.5108C17.5177 14.8369 17.1252 15 16.6668 15H3.3335ZM3.3335 13.3333H16.6668V4.16667H3.3335V13.3333ZM1.66683 17.5C1.43072 17.5 1.23294 17.42 1.0735 17.26C0.913496 17.1006 0.833496 16.9028 0.833496 16.6667C0.833496 16.4306 0.913496 16.2328 1.0735 16.0733C1.23294 15.9133 1.43072 15.8333 1.66683 15.8333H18.3335C18.5696 15.8333 18.7674 15.9133 18.9268 16.0733C19.0868 16.2328 19.1668 16.4306 19.1668 16.6667C19.1668 16.9028 19.0868 17.1006 18.9268 17.26C18.7674 17.42 18.5696 17.5 18.3335 17.5H1.66683Z" fill="#026ACC"/>
</svg>
